<?xml version="1.0" encoding="UTF-8" standalone="no"?><svg xmlns="http://www.w3.org/2000/svg" xmlns:xlink="http://www.w3.org/1999/xlink" contentScriptType="application/ecmascript" contentStyleType="text/css" height="620px" preserveAspectRatio="none" style="width:769px;height:620px;" version="1.1" viewBox="0 0 769 620" width="769px" zoomAndPan="magnify"><defs><filter height="300%" id="f2h8nzm1zqre8" width="300%" x="-1" y="-1"><feGaussianBlur result="blurOut" stdDeviation="2.0"/><feColorMatrix in="blurOut" result="blurOut2" type="matrix" values="0 0 0 0 0 0 0 0 0 0 0 0 0 0 0 0 0 0 .4 0"/><feOffset dx="4.0" dy="4.0" in="blurOut2" result="blurOut3"/><feBlend in="SourceGraphic" in2="blurOut3" mode="normal"/></filter></defs><g><!--MD5=[ce0bdc9c9d7363fc59409c686ba93793]
class list--><rect codeLine="1" fill="#FEFECE" filter="url(#f2h8nzm1zqre8)" height="158.6875" id="list" style="stroke:#A80036;stroke-width:1.5;" width="181" x="346" y="68.19"/><ellipse cx="424.75" cy="84.19" fill="#B4A7E5" rx="11" ry="11" style="stroke:#A80036;stroke-width:1.0;"/><path d="M425.75,81.19 L425.75,87.19 L427.75,87.19 L428.2344,87.19 L428.75,87.815 L428.75,88.19 L428.75,88.565 L428.2344,89.19 L427.75,89.19 L421.75,89.19 L421.2656,89.19 L420.75,88.565 L420.75,88.19 L420.75,87.815 L421.2656,87.19 L421.75,87.19 L423.75,87.19 L423.75,81.19 L421.75,81.19 L421.2656,81.19 L420.75,80.565 L420.75,80.19 L420.75,79.815 L421.2656,79.19 L421.75,79.19 L427.75,79.19 L428.2344,79.19 L428.75,79.815 L428.75,80.19 L428.75,80.565 L428.2344,81.19 L427.75,81.19 L425.75,81.19 Z " fill="#000000"/><text fill="#000000" font-family="sans-serif" font-size="12" font-style="italic" lengthAdjust="spacingAndGlyphs" textLength="15" x="445.25" y="89.1002">list</text><line style="stroke:#A80036;stroke-width:1.5;" x1="347" x2="526" y1="100.19" y2="100.19"/><line style="stroke:#A80036;stroke-width:1.5;" x1="347" x2="526" y1="108.19" y2="108.19"/><ellipse cx="357" cy="119.19" fill="#84BE84" rx="3" ry="3" style="stroke:#038048;stroke-width:1.0;"/><text fill="#000000" font-family="sans-serif" font-size="11" font-style="italic" lengthAdjust="spacingAndGlyphs" textLength="146" x="366" y="123.6089">insert(int index, T value): void</text><ellipse cx="357" cy="133.0259" fill="#84BE84" rx="3" ry="3" style="stroke:#038048;stroke-width:1.0;"/><text fill="#000000" font-family="sans-serif" font-size="11" font-style="italic" lengthAdjust="spacingAndGlyphs" textLength="122" x="366" y="137.4449">push_front(T value): void</text><ellipse cx="357" cy="146.8619" fill="#84BE84" rx="3" ry="3" style="stroke:#038048;stroke-width:1.0;"/><text fill="#000000" font-family="sans-serif" font-size="11" font-style="italic" lengthAdjust="spacingAndGlyphs" textLength="125" x="366" y="151.2808">push_back(T value): void</text><ellipse cx="357" cy="160.6978" fill="#84BE84" rx="3" ry="3" style="stroke:#038048;stroke-width:1.0;"/><text fill="#000000" font-family="sans-serif" font-size="11" font-style="italic" lengthAdjust="spacingAndGlyphs" textLength="67" x="366" y="165.1168">pop_front(): T</text><ellipse cx="357" cy="174.5338" fill="#84BE84" rx="3" ry="3" style="stroke:#038048;stroke-width:1.0;"/><text fill="#000000" font-family="sans-serif" font-size="11" font-style="italic" lengthAdjust="spacingAndGlyphs" textLength="70" x="366" y="178.9527">pop_back(): T</text><ellipse cx="357" cy="188.3697" fill="#84BE84" rx="3" ry="3" style="stroke:#038048;stroke-width:1.0;"/><text fill="#000000" font-family="sans-serif" font-size="11" font-style="italic" lengthAdjust="spacingAndGlyphs" textLength="81" x="366" y="192.7886">pop(int index): T</text><ellipse cx="357" cy="202.2056" fill="#84BE84" rx="3" ry="3" style="stroke:#038048;stroke-width:1.0;"/><text fill="#000000" font-family="sans-serif" font-size="11" font-style="italic" lengthAdjust="spacingAndGlyphs" textLength="110" x="366" y="206.6246">operator[](int index): T</text><ellipse cx="357" cy="216.0416" fill="#84BE84" rx="3" ry="3" style="stroke:#038048;stroke-width:1.0;"/><text fill="#000000" font-family="sans-serif" font-size="11" font-style="italic" lengthAdjust="spacingAndGlyphs" textLength="155" x="366" y="220.4605">replace(int index, T value): void</text><!--MD5=[1816e661d25430e6ffb111b8de0cbab6]
class container--><rect codeLine="12" fill="#FEFECE" filter="url(#f2h8nzm1zqre8)" height="103.3438" id="container" style="stroke:#A80036;stroke-width:1.5;" width="89" x="84" y="96.19"/><ellipse cx="101.7" cy="112.19" fill="#B4A7E5" rx="11" ry="11" style="stroke:#A80036;stroke-width:1.0;"/><path d="M102.7,109.19 L102.7,115.19 L104.7,115.19 L105.1844,115.19 L105.7,115.815 L105.7,116.19 L105.7,116.565 L105.1844,117.19 L104.7,117.19 L98.7,117.19 L98.2156,117.19 L97.7,116.565 L97.7,116.19 L97.7,115.815 L98.2156,115.19 L98.7,115.19 L100.7,115.19 L100.7,109.19 L98.7,109.19 L98.2156,109.19 L97.7,108.565 L97.7,108.19 L97.7,107.815 L98.2156,107.19 L98.7,107.19 L104.7,107.19 L105.1844,107.19 L105.7,107.815 L105.7,108.19 L105.7,108.565 L105.1844,109.19 L104.7,109.19 L102.7,109.19 Z " fill="#000000"/><text fill="#000000" font-family="sans-serif" font-size="12" font-style="italic" lengthAdjust="spacingAndGlyphs" textLength="51" x="116.3" y="117.1002">container</text><line style="stroke:#A80036;stroke-width:1.5;" x1="85" x2="172" y1="128.19" y2="128.19"/><polygon fill="none" points="95,134.19,99,138.19,95,142.19,91,138.19" style="stroke:#B38D22;stroke-width:1.0;"/><text fill="#000000" font-family="sans-serif" font-size="11" lengthAdjust="spacingAndGlyphs" textLength="43" x="104" y="143.6089">size_: int</text><line style="stroke:#A80036;stroke-width:1.5;" x1="85" x2="172" y1="150.0259" y2="150.0259"/><ellipse cx="95" cy="161.0259" fill="#84BE84" rx="3" ry="3" style="stroke:#038048;stroke-width:1.0;"/><text fill="#000000" font-family="sans-serif" font-size="11" font-style="italic" lengthAdjust="spacingAndGlyphs" textLength="61" x="104" y="165.4449">clear(): bool</text><ellipse cx="95" cy="174.8619" fill="#84BE84" rx="3" ry="3" style="stroke:#038048;stroke-width:1.0;"/><text fill="#000000" font-family="sans-serif" font-size="11" lengthAdjust="spacingAndGlyphs" textLength="45" x="104" y="179.2808">size(): int</text><ellipse cx="95" cy="188.6978" fill="#84BE84" rx="3" ry="3" style="stroke:#038048;stroke-width:1.0;"/><text fill="#000000" font-family="sans-serif" font-size="11" lengthAdjust="spacingAndGlyphs" textLength="63" x="104" y="193.1168">empty(): bool</text><!--MD5=[005f6441e5b45dba43c18624cb914bad]
class node--><rect codeLine="19" fill="#FEFECE" filter="url(#f2h8nzm1zqre8)" height="89.5078" id="node" style="stroke:#A80036;stroke-width:1.5;" width="102" x="208.5" y="102.69"/><ellipse cx="242.4" cy="118.69" fill="#ADD1B2" rx="11" ry="11" style="stroke:#A80036;stroke-width:1.0;"/><path d="M240.9,119.69 L240.9,121.69 L244.9,121.69 L244.9,120.69 L244.9,120.2056 L245.525,119.69 L245.9,119.69 L246.275,119.69 L246.9,120.2056 L246.9,120.69 L246.9,123.69 L238.9,123.69 L238.4156,123.69 L237.9,123.065 L237.9,122.69 L237.9,122.315 L238.4156,121.69 L238.9,121.69 L238.9,121.69 L238.9,115.69 L238.9,115.69 L238.4156,115.69 L237.9,115.065 L237.9,114.69 L237.9,114.315 L238.4156,113.69 L238.9,113.69 L246.9,113.69 L246.9,116.69 L246.9,117.1744 L246.275,117.69 L245.9,117.69 L245.525,117.69 L244.9,117.1744 L244.9,116.69 L244.9,115.69 L240.9,115.69 L240.9,117.69 L241.9,117.69 L241.9,117.2056 L241.9,117.2056 L242.525,116.69 L242.9,116.69 L243.275,116.69 L243.9,117.2056 L243.9,117.69 L243.9,119.69 L243.9,120.1744 L243.275,120.69 L243.275,120.69 L242.9,120.69 L242.525,120.69 L241.9,120.1744 L241.9,120.1744 L241.9,119.69 L240.9,119.69 Z " fill="#000000"/><text fill="#000000" font-family="sans-serif" font-size="12" lengthAdjust="spacingAndGlyphs" textLength="28" x="260.6" y="123.6002">node</text><line style="stroke:#A80036;stroke-width:1.5;" x1="209.5" x2="309.5" y1="134.69" y2="134.69"/><ellipse cx="219.5" cy="145.69" fill="none" rx="3" ry="3" style="stroke:#038048;stroke-width:1.0;"/><text fill="#000000" font-family="sans-serif" font-size="11" lengthAdjust="spacingAndGlyphs" textLength="38" x="228.5" y="150.1089">value: T</text><ellipse cx="219.5" cy="159.5259" fill="none" rx="3" ry="3" style="stroke:#038048;stroke-width:1.0;"/><text fill="#000000" font-family="sans-serif" font-size="11" lengthAdjust="spacingAndGlyphs" textLength="55" x="228.5" y="163.9449">next: node*</text><ellipse cx="219.5" cy="173.3619" fill="none" rx="3" ry="3" style="stroke:#038048;stroke-width:1.0;"/><text fill="#000000" font-family="sans-serif" font-size="11" lengthAdjust="spacingAndGlyphs" textLength="76" x="228.5" y="177.7808">previous: node*</text><line style="stroke:#A80036;stroke-width:1.5;" x1="209.5" x2="309.5" y1="184.1978" y2="184.1978"/><!--MD5=[8e283c5d16b594d62a58ac804d5a3096]
class array_container--><rect codeLine="25" fill="#FEFECE" filter="url(#f2h8nzm1zqre8)" height="158.6875" id="array_container" style="stroke:#A80036;stroke-width:1.5;" width="193" x="562" y="68.19"/><ellipse cx="611.25" cy="84.19" fill="#B4A7E5" rx="11" ry="11" style="stroke:#A80036;stroke-width:1.0;"/><path d="M612.25,81.19 L612.25,87.19 L614.25,87.19 L614.7344,87.19 L615.25,87.815 L615.25,88.19 L615.25,88.565 L614.7344,89.19 L614.25,89.19 L608.25,89.19 L607.7656,89.19 L607.25,88.565 L607.25,88.19 L607.25,87.815 L607.7656,87.19 L608.25,87.19 L610.25,87.19 L610.25,81.19 L608.25,81.19 L607.7656,81.19 L607.25,80.565 L607.25,80.19 L607.25,79.815 L607.7656,79.19 L608.25,79.19 L614.25,79.19 L614.7344,79.19 L615.25,79.815 L615.25,80.19 L615.25,80.565 L614.7344,81.19 L614.25,81.19 L612.25,81.19 Z " fill="#000000"/><text fill="#000000" font-family="sans-serif" font-size="12" font-style="italic" lengthAdjust="spacingAndGlyphs" textLength="86" x="631.75" y="89.1002">array_container</text><line style="stroke:#A80036;stroke-width:1.5;" x1="563" x2="754" y1="100.19" y2="100.19"/><ellipse cx="573" cy="111.19" fill="none" rx="3" ry="3" style="stroke:#038048;stroke-width:1.0;"/><text fill="#000000" font-family="sans-serif" font-size="11" lengthAdjust="spacingAndGlyphs" text-decoration="underline" textLength="129" x="582" y="115.6089">DEF_LOAD_FACTOR: float</text><ellipse cx="573" cy="125.0259" fill="none" rx="3" ry="3" style="stroke:#038048;stroke-width:1.0;"/><text fill="#000000" font-family="sans-serif" font-size="11" lengthAdjust="spacingAndGlyphs" text-decoration="underline" textLength="103" x="582" y="129.4449">DEF_INITIAL_SIZE: int</text><polygon fill="none" points="573,133.8619,577,137.8619,573,141.8619,569,137.8619" style="stroke:#B38D22;stroke-width:1.0;"/><text fill="#000000" font-family="sans-serif" font-size="11" lengthAdjust="spacingAndGlyphs" textLength="40" x="582" y="143.2808">tab_ : T*</text><polygon fill="none" points="573,147.6978,577,151.6978,573,155.6978,569,151.6978" style="stroke:#B38D22;stroke-width:1.0;"/><text fill="#000000" font-family="sans-serif" font-size="11" lengthAdjust="spacingAndGlyphs" textLength="94" x="582" y="157.1168">container_size_: int</text><polygon fill="none" points="573,161.5338,577,165.5338,573,169.5338,569,165.5338" style="stroke:#B38D22;stroke-width:1.0;"/><text fill="#000000" font-family="sans-serif" font-size="11" lengthAdjust="spacingAndGlyphs" textLength="72" x="582" y="170.9527">initial_size_: int</text><polygon fill="none" points="573,175.3697,577,179.3697,573,183.3697,569,179.3697" style="stroke:#B38D22;stroke-width:1.0;"/><text fill="#000000" font-family="sans-serif" font-size="11" lengthAdjust="spacingAndGlyphs" textLength="88" x="582" y="184.7886">load_factor_: float</text><line style="stroke:#A80036;stroke-width:1.0;" x1="563" x2="754" y1="191.2056" y2="191.2056"/><polygon fill="#FFFF44" points="573,197.2056,577,201.2056,573,205.2056,569,201.2056" style="stroke:#B38D22;stroke-width:1.0;"/><text fill="#000000" font-family="sans-serif" font-size="11" font-style="italic" lengthAdjust="spacingAndGlyphs" textLength="136" x="582" y="206.6246">rewrite_append(T value): T*</text><polygon fill="#FFFF44" points="573,211.0416,577,215.0416,573,219.0416,569,215.0416" style="stroke:#B38D22;stroke-width:1.0;"/><text fill="#000000" font-family="sans-serif" font-size="11" font-style="italic" lengthAdjust="spacingAndGlyphs" textLength="167" x="582" y="220.4605">rewrite(int size, int first_index): T*</text><!--MD5=[2abc714dff23b61b9c95db5294a85bdf]
class stack--><rect codeLine="37" fill="#FEFECE" filter="url(#f2h8nzm1zqre8)" height="135.0156" id="stack" style="stroke:#A80036;stroke-width:1.5;" width="119" x="7" y="379.19"/><ellipse cx="48.1" cy="395.19" fill="#ADD1B2" rx="11" ry="11" style="stroke:#A80036;stroke-width:1.0;"/><path d="M50.1,391.69 Q50.3031,391.19 50.5375,390.94 Q50.7719,390.69 51.0375,390.69 Q51.5063,390.69 51.8031,390.9713 Q52.1,391.2525 52.1,391.9088 L52.1,393.4713 Q52.1,394.1275 51.8188,394.4088 Q51.5375,394.69 51.1,394.69 Q50.7094,394.69 50.4594,394.5181 Q50.2094,394.3463 50.1,393.8931 Q50.0531,393.5806 49.8813,393.4088 Q49.5688,393.0806 49.0063,392.8931 Q48.4438,392.69 47.8813,392.69 Q47.1781,392.69 46.5844,392.9713 Q46.0063,393.2525 45.5531,393.8775 Q45.1,394.5025 45.1,395.3619 L45.1,396.2838 Q45.1,397.315 45.9438,398.0025 Q46.7875,398.69 48.2875,398.69 Q49.1781,398.69 49.8031,398.4869 Q50.1625,398.3775 50.5688,398.0181 Q50.8344,397.815 50.975,397.7525 Q51.1156,397.69 51.2875,397.69 Q51.6156,397.69 51.85,397.9556 Q52.1,398.2056 52.1,398.565 Q52.1,398.9088 51.7563,399.315 Q51.2563,399.9088 50.4594,400.2369 Q49.4125,400.69 48.1313,400.69 Q46.6313,400.69 45.4281,400.0963 Q44.4594,399.6275 43.7719,398.6119 Q43.1,397.5963 43.1,396.3931 L43.1,395.2994 Q43.1,394.0494 43.6938,392.9556 Q44.3031,391.8619 45.35,391.2838 Q46.4125,390.69 47.6,390.69 Q48.3188,390.69 48.9438,390.94 Q49.5688,391.19 50.1,391.69 Z " fill="#000000"/><text fill="#000000" font-family="sans-serif" font-size="12" lengthAdjust="spacingAndGlyphs" textLength="29" x="67.9" y="400.1002">stack</text><line style="stroke:#A80036;stroke-width:1.5;" x1="8" x2="125" y1="411.19" y2="411.19"/><rect fill="none" height="6" style="stroke:#C82930;stroke-width:1.0;" width="6" x="15" y="419.19"/><text fill="#000000" font-family="sans-serif" font-size="11" lengthAdjust="spacingAndGlyphs" textLength="75" x="27" y="426.6089">last_: node&lt;T&gt;*</text><line style="stroke:#A80036;stroke-width:1.0;" x1="8" x2="125" y1="433.0259" y2="433.0259"/><ellipse cx="18" cy="444.0259" fill="#84BE84" rx="3" ry="3" style="stroke:#038048;stroke-width:1.0;"/><text fill="#000000" font-family="sans-serif" font-size="11" lengthAdjust="spacingAndGlyphs" textLength="93" x="27" y="448.4449">push(T value): bool</text><ellipse cx="18" cy="457.8619" fill="#84BE84" rx="3" ry="3" style="stroke:#038048;stroke-width:1.0;"/><text fill="#000000" font-family="sans-serif" font-size="11" lengthAdjust="spacingAndGlyphs" textLength="38" x="27" y="462.2808">pop(): T</text><ellipse cx="18" cy="471.6978" fill="#84BE84" rx="3" ry="3" style="stroke:#038048;stroke-width:1.0;"/><text fill="#000000" font-family="sans-serif" font-size="11" lengthAdjust="spacingAndGlyphs" textLength="43" x="27" y="476.1168">peek(): T</text><ellipse cx="18" cy="503.3697" fill="#84BE84" rx="3" ry="3" style="stroke:#038048;stroke-width:1.0;"/><text fill="#000000" font-family="sans-serif" font-size="11" lengthAdjust="spacingAndGlyphs" textLength="58" x="27" y="507.7886">clear(): bool</text><line style="stroke:#A80036;stroke-width:1.0;" x1="8" x2="36" y1="489.4517" y2="489.4517"/><text fill="#000000" font-family="sans-serif" font-size="11" lengthAdjust="spacingAndGlyphs" textLength="61" x="36" y="493.4527">^ container ^</text><line style="stroke:#A80036;stroke-width:1.0;" x1="97" x2="125" y1="489.4517" y2="489.4517"/><!--MD5=[678896f9a038d78c237f4050933855b4]
class queue--><rect codeLine="47" fill="#FEFECE" filter="url(#f2h8nzm1zqre8)" height="148.8516" id="queue" style="stroke:#A80036;stroke-width:1.5;" width="137" x="161" y="372.19"/><ellipse cx="207.75" cy="388.19" fill="#ADD1B2" rx="11" ry="11" style="stroke:#A80036;stroke-width:1.0;"/><path d="M209.75,384.69 Q209.9531,384.19 210.1875,383.94 Q210.4219,383.69 210.6875,383.69 Q211.1563,383.69 211.4531,383.9713 Q211.75,384.2525 211.75,384.9088 L211.75,386.4713 Q211.75,387.1275 211.4688,387.4088 Q211.1875,387.69 210.75,387.69 Q210.3594,387.69 210.1094,387.5181 Q209.8594,387.3463 209.75,386.8931 Q209.7031,386.5806 209.5313,386.4088 Q209.2188,386.0806 208.6563,385.8931 Q208.0938,385.69 207.5313,385.69 Q206.8281,385.69 206.2344,385.9713 Q205.6563,386.2525 205.2031,386.8775 Q204.75,387.5025 204.75,388.3619 L204.75,389.2838 Q204.75,390.315 205.5938,391.0025 Q206.4375,391.69 207.9375,391.69 Q208.8281,391.69 209.4531,391.4869 Q209.8125,391.3775 210.2188,391.0181 Q210.4844,390.815 210.625,390.7525 Q210.7656,390.69 210.9375,390.69 Q211.2656,390.69 211.5,390.9556 Q211.75,391.2056 211.75,391.565 Q211.75,391.9088 211.4063,392.315 Q210.9063,392.9088 210.1094,393.2369 Q209.0625,393.69 207.7813,393.69 Q206.2813,393.69 205.0781,393.0963 Q204.1094,392.6275 203.4219,391.6119 Q202.75,390.5963 202.75,389.3931 L202.75,388.2994 Q202.75,387.0494 203.3438,385.9556 Q203.9531,384.8619 205,384.2838 Q206.0625,383.69 207.25,383.69 Q207.9688,383.69 208.5938,383.94 Q209.2188,384.19 209.75,384.69 Z " fill="#000000"/><text fill="#000000" font-family="sans-serif" font-size="12" lengthAdjust="spacingAndGlyphs" textLength="35" x="228.25" y="393.1002">queue</text><line style="stroke:#A80036;stroke-width:1.5;" x1="162" x2="297" y1="404.19" y2="404.19"/><rect fill="none" height="6" style="stroke:#C82930;stroke-width:1.0;" width="6" x="169" y="412.19"/><text fill="#000000" font-family="sans-serif" font-size="11" lengthAdjust="spacingAndGlyphs" textLength="77" x="181" y="419.6089">first_: node&lt;T&gt;*</text><rect fill="none" height="6" style="stroke:#C82930;stroke-width:1.0;" width="6" x="169" y="426.0259"/><text fill="#000000" font-family="sans-serif" font-size="11" lengthAdjust="spacingAndGlyphs" textLength="75" x="181" y="433.4449">last_: node&lt;T&gt;*</text><line style="stroke:#A80036;stroke-width:1.0;" x1="162" x2="297" y1="439.8619" y2="439.8619"/><ellipse cx="172" cy="450.8619" fill="#84BE84" rx="3" ry="3" style="stroke:#038048;stroke-width:1.0;"/><text fill="#000000" font-family="sans-serif" font-size="11" lengthAdjust="spacingAndGlyphs" textLength="111" x="181" y="455.2808">enqueue(T value): bool</text><ellipse cx="172" cy="464.6978" fill="#84BE84" rx="3" ry="3" style="stroke:#038048;stroke-width:1.0;"/><text fill="#000000" font-family="sans-serif" font-size="11" lengthAdjust="spacingAndGlyphs" textLength="62" x="181" y="469.1168">dequeue(): T</text><ellipse cx="172" cy="478.5338" fill="#84BE84" rx="3" ry="3" style="stroke:#038048;stroke-width:1.0;"/><text fill="#000000" font-family="sans-serif" font-size="11" lengthAdjust="spacingAndGlyphs" textLength="43" x="181" y="482.9527">peek(): T</text><ellipse cx="172" cy="510.2056" fill="#84BE84" rx="3" ry="3" style="stroke:#038048;stroke-width:1.0;"/><text fill="#000000" font-family="sans-serif" font-size="11" lengthAdjust="spacingAndGlyphs" textLength="58" x="181" y="514.6246">clear(): bool</text><line style="stroke:#A80036;stroke-width:1.0;" x1="162" x2="199" y1="496.2877" y2="496.2877"/><text fill="#000000" font-family="sans-serif" font-size="11" lengthAdjust="spacingAndGlyphs" textLength="61" x="199" y="500.2886">^ container ^</text><line style="stroke:#A80036;stroke-width:1.0;" x1="260" x2="297" y1="496.2877" y2="496.2877"/><!--MD5=[05b8f4639dddc32e07fb9756dfc31719]
class link_vector--><rect codeLine="58" fill="#FEFECE" filter="url(#f2h8nzm1zqre8)" height="318.8828" id="link_vector" style="stroke:#A80036;stroke-width:1.5;" width="195" x="333" y="287.19"/><ellipse cx="397.25" cy="303.19" fill="#ADD1B2" rx="11" ry="11" style="stroke:#A80036;stroke-width:1.0;"/><path d="M399.25,299.69 Q399.4531,299.19 399.6875,298.94 Q399.9219,298.69 400.1875,298.69 Q400.6563,298.69 400.9531,298.9713 Q401.25,299.2525 401.25,299.9088 L401.25,301.4713 Q401.25,302.1275 400.9688,302.4088 Q400.6875,302.69 400.25,302.69 Q399.8594,302.69 399.6094,302.5181 Q399.3594,302.3463 399.25,301.8931 Q399.2031,301.5806 399.0313,301.4088 Q398.7188,301.0806 398.1563,300.8931 Q397.5938,300.69 397.0313,300.69 Q396.3281,300.69 395.7344,300.9713 Q395.1563,301.2525 394.7031,301.8775 Q394.25,302.5025 394.25,303.3619 L394.25,304.2838 Q394.25,305.315 395.0938,306.0025 Q395.9375,306.69 397.4375,306.69 Q398.3281,306.69 398.9531,306.4869 Q399.3125,306.3775 399.7188,306.0181 Q399.9844,305.815 400.125,305.7525 Q400.2656,305.69 400.4375,305.69 Q400.7656,305.69 401,305.9556 Q401.25,306.2056 401.25,306.565 Q401.25,306.9088 400.9063,307.315 Q400.4063,307.9088 399.6094,308.2369 Q398.5625,308.69 397.2813,308.69 Q395.7813,308.69 394.5781,308.0963 Q393.6094,307.6275 392.9219,306.6119 Q392.25,305.5963 392.25,304.3931 L392.25,303.2994 Q392.25,302.0494 392.8438,300.9556 Q393.4531,299.8619 394.5,299.2838 Q395.5625,298.69 396.75,298.69 Q397.4688,298.69 398.0938,298.94 Q398.7188,299.19 399.25,299.69 Z " fill="#000000"/><text fill="#000000" font-family="sans-serif" font-size="12" lengthAdjust="spacingAndGlyphs" textLength="58" x="417.75" y="308.1002">link_vector</text><line style="stroke:#A80036;stroke-width:1.5;" x1="334" x2="527" y1="319.19" y2="319.19"/><polygon fill="none" points="344,325.19,348,329.19,344,333.19,340,329.19" style="stroke:#B38D22;stroke-width:1.0;"/><text fill="#000000" font-family="sans-serif" font-size="11" lengthAdjust="spacingAndGlyphs" textLength="77" x="353" y="334.6089">first_: node&lt;T&gt;*</text><polygon fill="none" points="344,339.0259,348,343.0259,344,347.0259,340,343.0259" style="stroke:#B38D22;stroke-width:1.0;"/><text fill="#000000" font-family="sans-serif" font-size="11" lengthAdjust="spacingAndGlyphs" textLength="75" x="353" y="348.4449">last_: node&lt;T&gt;*</text><line style="stroke:#A80036;stroke-width:1.0;" x1="334" x2="527" y1="354.8619" y2="354.8619"/><rect fill="#F24D5C" height="6" style="stroke:#C82930;stroke-width:1.0;" width="6" x="341" y="362.8619"/><text fill="#000000" font-family="sans-serif" font-size="11" lengthAdjust="spacingAndGlyphs" textLength="148" x="353" y="370.2808">has_next(node&lt;T&gt;* curr): bool</text><rect fill="#F24D5C" height="6" style="stroke:#C82930;stroke-width:1.0;" width="6" x="341" y="376.6978"/><text fill="#000000" font-family="sans-serif" font-size="11" lengthAdjust="spacingAndGlyphs" textLength="169" x="353" y="384.1168">has_previous(node&lt;T&gt;* curr): bool</text><rect fill="#F24D5C" height="6" style="stroke:#C82930;stroke-width:1.0;" width="6" x="341" y="390.5338"/><text fill="#000000" font-family="sans-serif" font-size="11" lengthAdjust="spacingAndGlyphs" textLength="74" x="353" y="397.9527">last_index(): int</text><rect fill="#F24D5C" height="6" style="stroke:#C82930;stroke-width:1.0;" width="6" x="341" y="404.3697"/><text fill="#000000" font-family="sans-serif" font-size="11" lengthAdjust="spacingAndGlyphs" textLength="109" x="353" y="411.7886">put_first(T value): void</text><rect fill="#F24D5C" height="6" style="stroke:#C82930;stroke-width:1.0;" width="6" x="341" y="418.2056"/><text fill="#000000" font-family="sans-serif" font-size="11" lengthAdjust="spacingAndGlyphs" textLength="61" x="353" y="425.6246">pop_last(): T</text><rect fill="#F24D5C" height="6" style="stroke:#C82930;stroke-width:1.0;" width="6" x="341" y="432.0416"/><text fill="#000000" font-family="sans-serif" font-size="11" lengthAdjust="spacingAndGlyphs" textLength="148" x="353" y="439.4605">find_node(int index): node&lt;T&gt;*</text><ellipse cx="344" cy="466.7134" fill="#84BE84" rx="3" ry="3" style="stroke:#038048;stroke-width:1.0;"/><text fill="#000000" font-family="sans-serif" font-size="11" lengthAdjust="spacingAndGlyphs" textLength="58" x="353" y="471.1324">clear(): bool</text><line style="stroke:#A80036;stroke-width:1.0;" x1="334" x2="400" y1="452.7955" y2="452.7955"/><text fill="#000000" font-family="sans-serif" font-size="11" lengthAdjust="spacingAndGlyphs" textLength="61" x="400" y="456.7964">^ container ^</text><line style="stroke:#A80036;stroke-width:1.0;" x1="461" x2="527" y1="452.7955" y2="452.7955"/><ellipse cx="344" cy="498.3853" fill="#84BE84" rx="3" ry="3" style="stroke:#038048;stroke-width:1.0;"/><text fill="#000000" font-family="sans-serif" font-size="11" lengthAdjust="spacingAndGlyphs" textLength="139" x="353" y="502.8043">insert(int index,T value): void</text><ellipse cx="344" cy="512.2213" fill="#84BE84" rx="3" ry="3" style="stroke:#038048;stroke-width:1.0;"/><text fill="#000000" font-family="sans-serif" font-size="11" lengthAdjust="spacingAndGlyphs" textLength="122" x="353" y="516.6402">push_front(T value): void</text><ellipse cx="344" cy="526.0572" fill="#84BE84" rx="3" ry="3" style="stroke:#038048;stroke-width:1.0;"/><text fill="#000000" font-family="sans-serif" font-size="11" lengthAdjust="spacingAndGlyphs" textLength="122" x="353" y="530.4761">push_back(T value): void</text><ellipse cx="344" cy="539.8931" fill="#84BE84" rx="3" ry="3" style="stroke:#038048;stroke-width:1.0;"/><text fill="#000000" font-family="sans-serif" font-size="11" lengthAdjust="spacingAndGlyphs" textLength="67" x="353" y="544.3121">pop_front(): T</text><ellipse cx="344" cy="553.7291" fill="#84BE84" rx="3" ry="3" style="stroke:#038048;stroke-width:1.0;"/><text fill="#000000" font-family="sans-serif" font-size="11" lengthAdjust="spacingAndGlyphs" textLength="67" x="353" y="558.148">pop_back(): T</text><ellipse cx="344" cy="567.565" fill="#84BE84" rx="3" ry="3" style="stroke:#038048;stroke-width:1.0;"/><text fill="#000000" font-family="sans-serif" font-size="11" lengthAdjust="spacingAndGlyphs" textLength="78" x="353" y="571.9839">pop(int index): T</text><ellipse cx="344" cy="581.4009" fill="#84BE84" rx="3" ry="3" style="stroke:#038048;stroke-width:1.0;"/><text fill="#000000" font-family="sans-serif" font-size="11" lengthAdjust="spacingAndGlyphs" textLength="107" x="353" y="585.8199">operator[](int index): T</text><ellipse cx="344" cy="595.2369" fill="#84BE84" rx="3" ry="3" style="stroke:#038048;stroke-width:1.0;"/><text fill="#000000" font-family="sans-serif" font-size="11" lengthAdjust="spacingAndGlyphs" textLength="151" x="353" y="599.6558">replace(int index, T value): void</text><line style="stroke:#A80036;stroke-width:1.0;" x1="334" x2="416" y1="484.4673" y2="484.4673"/><text fill="#000000" font-family="sans-serif" font-size="11" lengthAdjust="spacingAndGlyphs" textLength="29" x="416" y="488.4683">^ list ^</text><line style="stroke:#A80036;stroke-width:1.0;" x1="445" x2="527" y1="484.4673" y2="484.4673"/><!--MD5=[8017d3cb725c0aab20d112e5f1d5a6a9]
class vector--><rect codeLine="81" fill="#FEFECE" filter="url(#f2h8nzm1zqre8)" height="245.7031" id="vector" style="stroke:#A80036;stroke-width:1.5;" width="190" x="563.5" y="323.69"/><ellipse cx="638.25" cy="339.69" fill="#ADD1B2" rx="11" ry="11" style="stroke:#A80036;stroke-width:1.0;"/><path d="M640.25,336.19 Q640.4531,335.69 640.6875,335.44 Q640.9219,335.19 641.1875,335.19 Q641.6563,335.19 641.9531,335.4713 Q642.25,335.7525 642.25,336.4088 L642.25,337.9713 Q642.25,338.6275 641.9688,338.9088 Q641.6875,339.19 641.25,339.19 Q640.8594,339.19 640.6094,339.0181 Q640.3594,338.8463 640.25,338.3931 Q640.2031,338.0806 640.0313,337.9088 Q639.7188,337.5806 639.1563,337.3931 Q638.5938,337.19 638.0313,337.19 Q637.3281,337.19 636.7344,337.4713 Q636.1563,337.7525 635.7031,338.3775 Q635.25,339.0025 635.25,339.8619 L635.25,340.7838 Q635.25,341.815 636.0938,342.5025 Q636.9375,343.19 638.4375,343.19 Q639.3281,343.19 639.9531,342.9869 Q640.3125,342.8775 640.7188,342.5181 Q640.9844,342.315 641.125,342.2525 Q641.2656,342.19 641.4375,342.19 Q641.7656,342.19 642,342.4556 Q642.25,342.7056 642.25,343.065 Q642.25,343.4088 641.9063,343.815 Q641.4063,344.4088 640.6094,344.7369 Q639.5625,345.19 638.2813,345.19 Q636.7813,345.19 635.5781,344.5963 Q634.6094,344.1275 633.9219,343.1119 Q633.25,342.0963 633.25,340.8931 L633.25,339.7994 Q633.25,338.5494 633.8438,337.4556 Q634.4531,336.3619 635.5,335.7838 Q636.5625,335.19 637.75,335.19 Q638.4688,335.19 639.0938,335.44 Q639.7188,335.69 640.25,336.19 Z " fill="#000000"/><text fill="#000000" font-family="sans-serif" font-size="12" lengthAdjust="spacingAndGlyphs" textLength="32" x="658.75" y="344.6002">vector</text><line style="stroke:#A80036;stroke-width:1.5;" x1="564.5" x2="752.5" y1="355.69" y2="355.69"/><polygon fill="#FFFF44" points="574.5,379.5259,578.5,383.5259,574.5,387.5259,570.5,383.5259" style="stroke:#B38D22;stroke-width:1.0;"/><text fill="#000000" font-family="sans-serif" font-size="11" lengthAdjust="spacingAndGlyphs" textLength="136" x="583.5" y="388.9449">rewrite_append(T value): T*</text><polygon fill="#FFFF44" points="574.5,393.3619,578.5,397.3619,574.5,401.3619,570.5,397.3619" style="stroke:#B38D22;stroke-width:1.0;"/><text fill="#000000" font-family="sans-serif" font-size="11" lengthAdjust="spacingAndGlyphs" textLength="164" x="583.5" y="402.7808">rewrite(int size, int first_index): T*</text><line style="stroke:#A80036;stroke-width:1.0;" x1="564.5" x2="612" y1="370.608" y2="370.608"/><text fill="#000000" font-family="sans-serif" font-size="11" lengthAdjust="spacingAndGlyphs" textLength="93" x="612" y="374.6089">^ array_container ^</text><line style="stroke:#A80036;stroke-width:1.0;" x1="705" x2="752.5" y1="370.608" y2="370.608"/><ellipse cx="574.5" cy="430.0338" fill="#84BE84" rx="3" ry="3" style="stroke:#038048;stroke-width:1.0;"/><text fill="#000000" font-family="sans-serif" font-size="11" lengthAdjust="spacingAndGlyphs" textLength="58" x="583.5" y="434.4527">clear(): bool</text><line style="stroke:#A80036;stroke-width:1.0;" x1="564.5" x2="628" y1="416.1158" y2="416.1158"/><text fill="#000000" font-family="sans-serif" font-size="11" lengthAdjust="spacingAndGlyphs" textLength="61" x="628" y="420.1168">^ container ^</text><line style="stroke:#A80036;stroke-width:1.0;" x1="689" x2="752.5" y1="416.1158" y2="416.1158"/><ellipse cx="574.5" cy="461.7056" fill="#84BE84" rx="3" ry="3" style="stroke:#038048;stroke-width:1.0;"/><text fill="#000000" font-family="sans-serif" font-size="11" lengthAdjust="spacingAndGlyphs" textLength="139" x="583.5" y="466.1246">insert(int index,T value): void</text><ellipse cx="574.5" cy="475.5416" fill="#84BE84" rx="3" ry="3" style="stroke:#038048;stroke-width:1.0;"/><text fill="#000000" font-family="sans-serif" font-size="11" lengthAdjust="spacingAndGlyphs" textLength="122" x="583.5" y="479.9605">push_front(T value): void</text><ellipse cx="574.5" cy="489.3775" fill="#84BE84" rx="3" ry="3" style="stroke:#038048;stroke-width:1.0;"/><text fill="#000000" font-family="sans-serif" font-size="11" lengthAdjust="spacingAndGlyphs" textLength="122" x="583.5" y="493.7964">push_back(T value): void</text><ellipse cx="574.5" cy="503.2134" fill="#84BE84" rx="3" ry="3" style="stroke:#038048;stroke-width:1.0;"/><text fill="#000000" font-family="sans-serif" font-size="11" lengthAdjust="spacingAndGlyphs" textLength="67" x="583.5" y="507.6324">pop_front(): T</text><ellipse cx="574.5" cy="517.0494" fill="#84BE84" rx="3" ry="3" style="stroke:#038048;stroke-width:1.0;"/><text fill="#000000" font-family="sans-serif" font-size="11" lengthAdjust="spacingAndGlyphs" textLength="67" x="583.5" y="521.4683">pop_back(): T</text><ellipse cx="574.5" cy="530.8853" fill="#84BE84" rx="3" ry="3" style="stroke:#038048;stroke-width:1.0;"/><text fill="#000000" font-family="sans-serif" font-size="11" lengthAdjust="spacingAndGlyphs" textLength="78" x="583.5" y="535.3043">pop(int index): T</text><ellipse cx="574.5" cy="544.7213" fill="#84BE84" rx="3" ry="3" style="stroke:#038048;stroke-width:1.0;"/><text fill="#000000" font-family="sans-serif" font-size="11" lengthAdjust="spacingAndGlyphs" textLength="107" x="583.5" y="549.1402">operator[](int index): T</text><ellipse cx="574.5" cy="558.5572" fill="#84BE84" rx="3" ry="3" style="stroke:#038048;stroke-width:1.0;"/><text fill="#000000" font-family="sans-serif" font-size="11" lengthAdjust="spacingAndGlyphs" textLength="151" x="583.5" y="562.9761">replace(int index, T value): void</text><line style="stroke:#A80036;stroke-width:1.0;" x1="564.5" x2="644" y1="447.7877" y2="447.7877"/><text fill="#000000" font-family="sans-serif" font-size="11" lengthAdjust="spacingAndGlyphs" textLength="29" x="644" y="451.7886">^ list ^</text><line style="stroke:#A80036;stroke-width:1.0;" x1="673" x2="752.5" y1="447.7877" y2="447.7877"/><!--MD5=[046b635a150ae04c64c2ea67d5a9c4b1]
reverse link list to link_vector--><path codeLine="98" d="M434.5,247.61 C434.25,260.31 433.98,273.55 433.71,286.91 " fill="none" id="list-backto-link_vector" style="stroke:#A80036;stroke-width:1.0;"/><polygon fill="none" points="427.51,247.36,434.91,227.5,441.5,247.64,427.51,247.36" style="stroke:#A80036;stroke-width:1.0;"/><!--MD5=[6de07bc4429f415ee97671830492e54d]
reverse link container to array_container--><path codeLine="99" d="M163.23,79.2 C175.06,62.8 189.96,47.38 208,38.19 C271.16,6 460.34,14.07 527,38.19 C545.86,45.01 563.91,55.85 580.28,68.11 " fill="none" id="container-backto-array_container" style="stroke:#A80036;stroke-width:1.0;"/><polygon fill="none" points="169,83.16,152.21,96.08,157.28,75.51,169,83.16" style="stroke:#A80036;stroke-width:1.0;"/><!--MD5=[2744a5517da260e76b28afaef4577055]
reverse link container to stack--><path codeLine="100" d="M113.8,219.12 C103.69,267.53 90.36,331.41 80.42,379 " fill="none" id="container-backto-stack" style="stroke:#A80036;stroke-width:1.0;"/><polygon fill="none" points="106.97,217.56,117.91,199.41,120.68,220.42,106.97,217.56" style="stroke:#A80036;stroke-width:1.0;"/><!--MD5=[5c8b0ec1d40f619a1e0cc80e8b79cefa]
reverse link container to queue--><path codeLine="101" d="M152.26,218.56 C167.96,264.73 188.51,325.16 204.47,372.07 " fill="none" id="container-backto-queue" style="stroke:#A80036;stroke-width:1.0;"/><polygon fill="none" points="145.56,220.6,145.75,199.41,158.81,216.09,145.56,220.6" style="stroke:#A80036;stroke-width:1.0;"/><!--MD5=[051d4d7c6aceebf7a127747708f807c6]
reverse link container to link_vector--><path codeLine="102" d="M176.59,214.56 C181.05,219.08 185.71,223.35 190.5,227.19 C238.61,265.69 268.18,247.71 315.5,287.19 C321.37,292.09 327.1,297.35 332.67,302.88 " fill="none" id="container-backto-link_vector" style="stroke:#A80036;stroke-width:1.0;"/><polygon fill="none" points="171.25,219.09,163.08,199.54,181.66,209.72,171.25,219.09" style="stroke:#A80036;stroke-width:1.0;"/><!--MD5=[0123aa492768e7835c0d65ec86bc1292]
reverse link array_container to vector--><path codeLine="103" d="M658.5,247.82 C658.5,272.12 658.5,298.41 658.5,323.65 " fill="none" id="array_container-backto-vector" style="stroke:#A80036;stroke-width:1.0;"/><polygon fill="none" points="651.5,247.5,658.5,227.5,665.5,247.5,651.5,247.5" style="stroke:#A80036;stroke-width:1.0;"/><!--MD5=[66ced68b8558967148bb9e2508641d40]
reverse link list to vector--><path codeLine="104" d="M512.08,243.5 C523.39,258.05 534.84,272.96 545.5,287.19 C554.32,298.95 563.4,311.3 572.4,323.68 " fill="none" id="list-backto-vector" style="stroke:#A80036;stroke-width:1.0;"/><polygon fill="none" points="506.21,247.36,499.41,227.29,517.24,238.74,506.21,247.36" style="stroke:#A80036;stroke-width:1.0;"/><!--MD5=[4a258f686a2a224f87c4e84c86298839]
reverse link node to link_vector--><path codeLine="105" d="M289,199.93 C303.18,224.56 321.03,255.55 339.22,287.15 " fill="none" id="node-backto-link_vector" style="stroke:#A80036;stroke-width:1.0;"/><line style="stroke:#A80036;stroke-width:1.0;" x1="288.9091" x2="279.7191" y1="199.7645" y2="195.8218"/><line style="stroke:#A80036;stroke-width:1.0;" x1="288.9091" x2="290.1209" y1="199.7645" y2="189.8382"/><line style="stroke:#A80036;stroke-width:1.0;" x1="288.9091" x2="284.92" y1="199.7645" y2="192.83"/><line style="stroke:#A80036;stroke-width:1.0;" x1="286.4392" x2="293.3736" y1="203.4927" y2="199.5035"/><!--MD5=[a283412b7d3ac39d498648b7a57d0a3a]
reverse link node to queue--><path codeLine="106" d="M254.23,200.84 C249.44,248.33 242.3,318.96 236.93,372.18 " fill="none" id="node-backto-queue" style="stroke:#A80036;stroke-width:1.0;"/><line style="stroke:#A80036;stroke-width:1.0;" x1="254.2397" x2="249.0701" y1="200.7899" y2="192.2298"/><line style="stroke:#A80036;stroke-width:1.0;" x1="254.2397" x2="261.0099" y1="200.7899" y2="193.4302"/><line style="stroke:#A80036;stroke-width:1.0;" x1="254.2397" x2="255.04" y1="200.7899" y2="192.83"/><line style="stroke:#A80036;stroke-width:1.0;" x1="250.0597" x2="258.0196" y1="202.3797" y2="203.18"/><!--MD5=[6b98e652edd398c8fb8886d21cd9d2f1]
reverse link node to stack--><path codeLine="107" d="M215.1,199.05 C187.52,230.83 155.17,269.17 143.5,287.19 C124.87,315.95 107.81,349.88 94.5,378.96 " fill="none" id="node-backto-stack" style="stroke:#A80036;stroke-width:1.0;"/><line style="stroke:#A80036;stroke-width:1.0;" x1="215.2921" x2="216.0279" y1="198.8095" y2="188.8366"/><line style="stroke:#A80036;stroke-width:1.0;" x1="215.2921" x2="225.0721" y1="198.8095" y2="196.7234"/><line style="stroke:#A80036;stroke-width:1.0;" x1="215.2921" x2="220.55" y1="198.8095" y2="192.78"/><line style="stroke:#A80036;stroke-width:1.0;" x1="210.9629" x2="216.9923" y1="197.6879" y2="202.9458"/><!--MD5=[018db3492b556f7a411f774cc3ad0573]
@startuml
interface list{
+{abstract}insert(int index, T value): void
+{abstract}push_front(T value): void
+{abstract}push_back(T value): void
+{abstract}pop_front(): T
+{abstract}pop_back(): T
+{abstract}pop(int index): T
+{abstract}operator[](int index): T
+{abstract}replace(int index, T value): void
}

interface container{
#size_: int
+{abstract}clear(): bool
+size(): int
+empty(): bool
}

entity node{
+value: T
+next: node*
+previous: node*
}

interface array_container{
+{static} DEF_LOAD_FACTOR: float
+{static} DEF_INITIAL_SIZE: int
#tab_ : T*
#container_size_: int
#initial_size_: int
#load_factor_: float
- -
#{abstract}rewrite_append(T value): T*
#{abstract}rewrite(int size, int first_index): T*
}

class stack{
-last_: node<T>*
- -
+push(T value): bool
+pop(): T
+peek(): T
- -^ container ^- -
+clear(): bool
}

class queue{
-first_: node<T>*
-last_: node<T>*
- - - -
+enqueue(T value): bool
+dequeue(): T
+peek(): T
- -^ container ^- -
+clear(): bool
}

class link_vector{
#first_: node<T>*
#last_: node<T>*
- -
-has_next(node<T>* curr): bool
-has_previous(node<T>* curr): bool
-last_index(): int
-put_first(T value): void
-pop_last(): T
-find_node(int index): node<T>*
- -^ container ^- -
+clear(): bool
- -^ list ^- -
+insert(int index,T value): void
+push_front(T value): void
+push_back(T value): void
+pop_front(): T
+pop_back(): T
+pop(int index): T
+operator[](int index): T
+replace(int index, T value): void
}

class vector{
- -^ array_container ^- -
#rewrite_append(T value): T*
#rewrite(int size, int first_index): T*
- -^ container ^- -
+clear(): bool
- -^ list ^- -
+insert(int index,T value): void
+push_front(T value): void
+push_back(T value): void
+pop_front(): T
+pop_back(): T
+pop(int index): T
+operator[](int index): T
+replace(int index, T value): void
}

list <|- - link_vector
container <|- array_container
container <|- - stack
container <|- - queue
container <|- - link_vector
array_container <|- - vector
list <|- - vector
node }|- - link_vector
node }|- - queue
node }|- - stack
@enduml

PlantUML version 1.2020.23(Sun Dec 13 20:14:58 CET 2020)
(GPL source distribution)
Java Runtime: OpenJDK Runtime Environment
JVM: OpenJDK 64-Bit Server VM
Default Encoding: Cp1250
Language: pl
Country: PL
--></g></svg>